<?xml version="1.0" encoding="UTF-8"?>
<svg width="700pt" height="700pt" version="1.1" viewBox="0 0 700 700" xmlns="http://www.w3.org/2000/svg">
 <path d="m104.96 26.25c-4.8047 0.019531-8.6953 3.9102-8.7148 8.7148v131.64c-0.019531 4.832 3.8828 8.7656 8.7148 8.7852h131.64c4.832-0.019531 8.7344-3.9531 8.7148-8.7852v-131.64c-0.019531-4.8047-3.9102-8.6953-8.7148-8.7148zm179.24 0c-4.832-0.019531-8.7656 3.8828-8.7852 8.7148v131.64c-0.007813 2.332 0.91406 4.5703 2.5664 6.2188 1.6484 1.6523 3.8867 2.5742 6.2188 2.5664h131.57c2.3242-0.007812 4.5508-0.93359 6.1875-2.582 1.6406-1.6484 2.5547-3.8789 2.5469-6.2031v-131.64c-0.019531-4.8125-3.9219-8.7031-8.7344-8.7148zm179.19 0c-4.832-0.019531-8.7656 3.8828-8.7852 8.7148v131.64c-0.007813 2.332 0.91406 4.5703 2.5625 6.2188 1.6523 1.6523 3.8906 2.5742 6.2227 2.5664h131.57c2.332 0.007813 4.5742-0.91406 6.2227-2.5664 1.6484-1.6484 2.5703-3.8867 2.5625-6.2188v-131.64c-0.019531-4.832-3.9531-8.7344-8.7852-8.7148zm-349.64 17.5h114.14v114.14h-114.14zm179.19 0h114.06v114.14h-114.06zm179.17 0h114.12v114.14h-114.12zm-367.14 161.67c-4.832 0.019531-8.7344 3.9531-8.7148 8.7852v131.57c-0.019531 4.832 3.8828 8.7656 8.7148 8.7852h131.64c4.832-0.019531 8.7344-3.9531 8.7148-8.7852v-131.57c0.019531-4.832-3.8828-8.7656-8.7148-8.7852zm179.24 0c-2.332-0.007813-4.5703 0.91406-6.2188 2.5664-1.6523 1.6484-2.5742 3.8867-2.5664 6.2188v131.57c-0.007813 2.332 0.91406 4.5742 2.5664 6.2227 1.6484 1.6484 3.8867 2.5703 6.2188 2.5625h131.57c2.3242-0.003906 4.5508-0.93359 6.1875-2.582 1.6406-1.6484 2.5547-3.8789 2.5469-6.2031v-131.57c0.007812-2.3242-0.90625-4.5547-2.5469-6.2031-1.6367-1.6484-3.8633-2.5742-6.1875-2.582zm179.19 0c-2.332-0.007813-4.5703 0.91406-6.2227 2.5664-1.6484 1.6484-2.5703 3.8867-2.5625 6.2188v131.57c-0.007813 2.332 0.91406 4.5742 2.5664 6.2227 1.6484 1.6484 3.8867 2.5703 6.2188 2.5625h131.57c2.332 0.007812 4.5742-0.91406 6.2227-2.5625s2.5703-3.8906 2.5625-6.2227v-131.57c0.007812-2.332-0.91406-4.5703-2.5625-6.2188-1.6484-1.6523-3.8906-2.5742-6.2227-2.5664zm-349.64 17.516h114.14v114.13h-114.14zm179.19 0 114.06 0.003906v114.12h-114.06zm179.17 0h114.12v114.13h-114.12zm-367.14 161.67c-4.832 0.019531-8.7344 3.9531-8.7148 8.7852v131.57c-0.019531 4.832 3.8828 8.7656 8.7148 8.7852h131.64c4.832-0.019531 8.7344-3.9531 8.7148-8.7852v-131.57c0.019531-4.832-3.8828-8.7656-8.7148-8.7852zm179.24 0c-2.332-0.007813-4.5703 0.91406-6.2188 2.5625-1.6523 1.6523-2.5742 3.8906-2.5664 6.2227v131.57c-0.007813 2.332 0.91406 4.5742 2.5664 6.2227 1.6484 1.6484 3.8867 2.5703 6.2188 2.5625h131.57c2.3242-0.003906 4.5508-0.93359 6.1875-2.582 1.6406-1.6484 2.5547-3.8789 2.5469-6.2031v-131.57c0.007812-2.3242-0.90625-4.5547-2.5469-6.2031-1.6367-1.6484-3.8633-2.5742-6.1875-2.582zm179.19 0c-2.332-0.007813-4.5703 0.91406-6.2188 2.5664-1.6523 1.6484-2.5742 3.8867-2.5664 6.2188v131.57c-0.007813 2.332 0.91406 4.5742 2.5625 6.2227 1.6523 1.6484 3.8906 2.5703 6.2227 2.5625h131.57c2.332 0.007812 4.5742-0.91406 6.2227-2.5625s2.5703-3.8906 2.5625-6.2227v-131.57c0.007812-2.332-0.91406-4.5703-2.5625-6.2227-1.6484-1.6484-3.8906-2.5703-6.2227-2.5625zm-349.64 17.5h114.14v114.12h-114.14zm179.19 0h114.06v114.12l-114.06 0.003906zm179.17 0h114.12v114.12h-114.12z"/>
</svg>
